<svg width="114" height="44" viewBox="0 0 114 44" fill="none" xmlns="http://www.w3.org/2000/svg">
<path fill-rule="evenodd" clip-rule="evenodd" d="M1.84162 23.4712L1.87672 23.4922C-2.73055 31.7879 2.53393 43.7867 13.3937 43.7993L32.0946 43.8209V43.8194C41.3602 43.7636 48.7962 33.0773 43.3816 23.3902L34.1201 6.82052C29.5187 -1.56864 16.6826 -2.94347 11.2103 6.79653L1.84162 23.4712ZM34.5083 13.2923C34.2075 0.927687 18.3374 -3.24428 12.3232 7.46022L5.74632 19.166C5.99973 18.9826 6.26236 18.8051 6.53433 18.6338L10.7963 15.9498L20.8769 9.89416C22.0726 9.17586 23.5502 9.1726 24.7489 9.8856L34.5675 15.7259L34.5083 13.2923ZM35.7938 13.2591C35.7866 12.9648 35.7715 12.6747 35.7487 12.3889L42.2673 24.0513C48.2582 34.7697 36.8163 46.8434 26.2723 40.9295L24.1748 39.753L34.0402 33.8848C35.2389 33.1718 35.9749 31.8518 35.969 30.4258L35.9189 18.4038L35.8749 16.5934L35.8727 16.5022L35.7938 13.2591ZM22.1814 38.6349L22.1806 37.4586C22.1766 30.7754 16.9533 25.3501 10.4824 25.2753L10.4824 30.2155C10.4824 31.1662 10.9768 32.044 11.7779 32.5158L22.1814 38.6349ZM10.4824 23.949V17.7002L11.4557 17.0873L21.5246 11.0386C21.7329 10.9135 21.954 10.8209 22.1813 10.7609L22.1806 11.7657C22.1766 18.4489 16.9533 23.8742 10.4824 23.949ZM33.3972 32.7375L23.4678 38.6437L23.4686 37.4586C23.4725 30.9502 28.4262 25.6348 34.6617 25.2921L34.6831 30.4315C34.687 31.3822 34.1963 32.2622 33.3972 32.7375ZM34.656 23.9319C28.4232 23.5863 23.4725 18.2722 23.4686 11.7657L23.468 10.7633C23.6885 10.8225 23.9032 10.9123 24.106 11.0329L34.6052 17.2781L34.6331 18.4233L34.656 23.9319ZM26.4149 42.4895L13.3951 42.4745C1.38989 42.4606 -3.03821 26.2149 7.20498 19.7642L9.1965 18.51L9.1965 30.2155C9.1965 31.6416 9.93804 32.9583 11.1397 33.666L21.2703 39.6323L25.6575 42.093C25.9095 42.2344 26.1621 42.3665 26.4149 42.4895ZM22.8246 33.2782C21.5305 29.1829 18.3898 25.9464 14.4152 24.6122C18.3898 23.2779 21.5305 20.0414 22.8246 15.9461C24.1187 20.0414 27.2594 23.2779 31.234 24.6122C27.2594 25.9464 24.1187 29.1829 22.8246 33.2782Z" fill="#333333"/>
<path d="M83.6844 29.8959C83.6844 30.5754 82.6953 30.7291 81.075 30.7291C79.4546 30.7291 78.8206 30.3516 78.6932 29.2676C78.0348 30.2761 76.8452 30.8316 75.1219 30.8316C72.564 30.8316 70.3855 29.0923 70.3855 25.8645V21.6551C70.3855 20.4713 69.3721 20.1666 69.3721 19.5383V19.4385C69.3721 19.1608 69.5997 18.91 69.9546 18.8587L73.7292 18.3545C74.4635 18.2547 74.9187 18.4057 74.9187 18.8587L74.8428 26.3202C74.8184 28.3885 75.3495 29.1678 76.4632 29.1678C77.4007 29.1678 78.135 28.1836 78.135 26.6465V21.6551C78.135 20.4713 77.1216 20.1666 77.1216 19.5383V19.4385C77.1216 19.1608 77.3492 18.91 77.7042 18.8587L81.4787 18.3545C82.213 18.2547 82.5924 18.4057 82.5924 18.8587V27.8033C82.5924 29.8447 83.6817 28.8631 83.6817 29.8959H83.6844Z" fill="#333333"/>
<path d="M95.1923 20.8201C95.1923 22.0794 94.7099 23.1904 93.2413 23.1904C90.9354 23.1904 91.9759 20.8201 90.7078 20.8201C89.8976 20.8201 89.7703 22.1307 89.7703 23.239V27.9283C89.7703 29.0879 91.1115 29.3899 91.1115 30.0964V30.1962C91.1115 30.4982 90.8596 30.6762 90.5046 30.6762H85.0582C84.7033 30.6762 84.4513 30.5009 84.4513 30.1962V30.0964C84.4513 29.3899 85.4647 29.0879 85.4647 27.9283V22.9127C85.4647 21.7289 84.248 21.6264 84.248 20.8956V20.8201C84.248 20.5181 84.4513 20.2916 84.8306 20.0893L88.4019 18.4255C89.0604 18.1235 89.3151 18.4768 89.3151 18.981V20.8201C89.8732 19.2076 91.0628 18.3231 92.8105 18.3231C94.3062 18.3231 95.1923 19.4071 95.1923 20.8201Z" fill="#333333"/>
<path d="M108.995 29.9007C108.995 30.556 107.527 30.734 106.134 30.734C104.614 30.734 103.879 30.432 103.676 29.5232C103.145 30.254 102.132 30.8338 100.46 30.8338C97.7502 30.8338 95.6719 29.5987 95.6719 27.0019C95.6719 24.4051 97.826 23.1458 100.232 23.1458C101.297 23.1458 102.159 23.3966 102.79 23.7768V23.7013C102.487 20.7269 102.308 19.4407 100.991 19.4407C99.2432 19.4407 99.9531 22.8195 97.6987 22.8195C96.6338 22.8195 95.9266 22.1642 95.9266 21.18C95.9266 19.1117 98.4086 18.2299 100.994 18.2299C104.389 18.2299 106.743 20.1957 107.15 23.3238L107.708 27.8352C107.936 29.6257 109.001 29.1969 109.001 29.9034L108.995 29.9007ZM103.169 27.7327L103.069 26.5731C102.893 25.0604 102.232 24.4806 101.498 24.4806C100.763 24.4806 100.205 25.1601 100.205 26.1956C100.205 27.9862 100.812 29.5475 101.853 29.5475C102.69 29.5475 103.169 28.5902 103.169 27.7327Z" fill="#333333"/>
<path fill-rule="evenodd" clip-rule="evenodd" d="M52.6318 30.2556V30.3554C52.6318 30.6574 52.8594 30.8354 53.2388 30.8354H59.4222C59.7771 30.8354 60.0048 30.6601 60.0048 30.3554V30.2556C60.0048 29.7486 59.2352 29.452 58.9507 28.8938C58.761 28.5244 59.0483 28.0875 59.4655 28.0875H64.0204C64.4377 28.0875 64.7249 28.5244 64.5353 28.8938C64.2508 29.4493 63.4812 29.7486 63.4812 30.2529V30.3527C63.4812 30.6547 63.7088 30.8327 64.0882 30.8327H70.109C70.4883 30.8327 70.7159 30.6574 70.7159 30.3527V30.2529C70.7159 29.5464 69.7784 29.4223 69.2473 28.0848C69.2473 28.0848 64.099 14.618 63.885 14.1434C63.885 14.1434 63.4568 12.9327 62.522 12.9327H61.4327C60.5467 12.9327 60.2297 13.3102 59.8747 14.1434L54.1005 28.0875C53.5694 29.3981 52.6318 29.5491 52.6318 30.2556ZM60.5619 23.2607C60.5619 24.0369 58.6626 24.2899 58.6626 25.1351H58.6597C58.6597 25.5405 59.2093 25.8021 59.8079 25.8021H63.5403C64.1389 25.8021 64.6885 25.5405 64.6885 25.1351C64.6885 24.287 62.7892 24.0369 62.7892 23.2607C62.7892 22.4845 64.0468 22.5621 64.0468 21.6019C64.0468 20.7969 62.5561 21.1534 62.5561 20.2967C62.5561 19.946 62.6482 19.6987 62.6482 19.4458C62.6482 18.8593 62.2971 18.4511 61.6755 18.4511C61.054 18.4511 60.7029 18.8593 60.7029 19.4458C60.7029 19.6987 60.795 19.946 60.795 20.2967C60.795 21.1534 59.3043 20.7969 59.3043 21.6019C59.3043 22.5621 60.5619 22.4845 60.5619 23.2607Z" fill="#333333"/>
<path d="M112.941 28.8602C112.625 29.1747 112.244 29.3334 111.798 29.3334C111.352 29.3334 110.969 29.1747 110.65 28.8602C110.331 28.5456 110.172 28.1639 110.172 27.7203C110.172 27.2767 110.331 26.8977 110.65 26.5831C110.969 26.2686 111.35 26.1126 111.798 26.1126C112.247 26.1126 112.625 26.2686 112.941 26.5831C113.257 26.8977 113.414 27.2767 113.414 27.7203C113.414 28.1639 113.257 28.5456 112.941 28.8602ZM111.798 29.0564C112.149 29.0564 112.449 28.9247 112.698 28.6613C112.949 28.3978 113.073 28.0832 113.073 27.7203C113.073 27.3574 112.949 27.0428 112.698 26.7794C112.446 26.5186 112.147 26.3869 111.798 26.3869C111.45 26.3869 111.144 26.5186 110.893 26.7794C110.642 27.0401 110.518 27.3547 110.518 27.7203C110.518 28.0859 110.642 28.4059 110.89 28.6666C111.139 28.9274 111.442 29.0591 111.798 29.0591V29.0564ZM111.814 28.6182C111.555 28.6182 111.336 28.5268 111.155 28.3467C110.977 28.1666 110.885 27.9515 110.885 27.7069C110.885 27.4622 110.974 27.2391 111.15 27.0697C111.325 26.9003 111.55 26.817 111.82 26.8197C112.036 26.8224 112.222 26.8761 112.379 26.981C112.536 27.0858 112.614 27.2122 112.614 27.3574C112.614 27.4111 112.592 27.4568 112.549 27.4918C112.506 27.5294 112.446 27.5482 112.374 27.5482C112.309 27.5482 112.255 27.5294 112.209 27.4891C112.163 27.4515 112.128 27.4058 112.103 27.352C112.079 27.2982 112.052 27.2445 112.028 27.1907C112.003 27.1369 111.968 27.0885 111.925 27.0509C111.882 27.0133 111.831 26.9917 111.768 26.9917C111.655 26.9917 111.571 27.0401 111.514 27.1342C111.458 27.231 111.428 27.3574 111.428 27.5133C111.428 27.7122 111.479 27.8735 111.579 27.9972C111.682 28.1209 111.828 28.1827 112.017 28.1827C112.206 28.1827 112.365 28.0994 112.465 27.93C112.487 27.9004 112.517 27.8951 112.557 27.9112C112.598 27.9273 112.617 27.9542 112.614 27.9945C112.6 28.172 112.522 28.3198 112.379 28.4354C112.236 28.551 112.047 28.6102 111.812 28.6102L111.814 28.6182Z" fill="#333333"/>
</svg>
