<svg width="39" height="44" viewBox="0 0 39 44" fill="none" xmlns="http://www.w3.org/2000/svg">
<path d="M0.511719 30.1314V14.8445C0.511719 12.8016 1.60243 10.914 3.37246 9.8939L16.6506 2.24109C18.4167 1.22326 20.5912 1.22326 22.3572 2.24109L35.6354 9.8939C37.4054 10.914 38.4961 12.8016 38.4961 14.8445V30.1314C38.4961 32.1743 37.4054 34.0619 35.6354 35.082L22.3572 42.7348C20.5912 43.7526 18.4167 43.7526 16.6506 42.7348L3.37246 35.082C1.60243 34.0619 0.511719 32.1743 0.511719 30.1314Z" fill="#0D0D0D" stroke="white"/>
<path d="M28.111 13.8893L22.3083 19.6837C20.7568 21.233 18.2437 21.233 16.6922 19.6837L10.8895 13.8893L16.684 19.6919C18.2333 21.2434 18.2333 23.7566 16.684 25.3081L10.8895 31.1107L16.6922 25.3163C18.2437 23.767 20.7568 23.767 22.3083 25.3163L28.111 31.1107L22.3165 25.3081C20.7672 23.7566 20.7672 21.2434 22.3165 19.6919L28.111 13.8893Z" fill="white" stroke="white"/>
</svg>