<svg width="23" height="20" viewBox="0 0 23 20" fill="none" xmlns="http://www.w3.org/2000/svg">
<path d="M9.58253 -5.41456e-07C4.29001 -7.69294e-07 -0.000429538 4.47715 -0.000429783 10C-0.000430028 15.5228 4.29001 20 9.58253 20C17.8697 20 22.1602 10 22.1602 10C22.1602 10 17.8697 -1.84699e-07 9.58253 -5.41456e-07Z" fill="#0D0D0D" fill-opacity="0.7"/>
<path d="M9.58253 0.499999C4.58601 0.499999 0.49957 4.73301 0.499569 10C0.499569 15.267 4.58601 19.5 9.58253 19.5C13.511 19.5 16.5287 17.1298 18.5968 14.6776C19.6261 13.4573 20.4044 12.2344 20.9254 11.3158C21.1856 10.8571 21.3808 10.4757 21.5103 10.2103C21.5501 10.1289 21.5836 10.0584 21.611 10C21.5836 9.94163 21.5501 9.87114 21.5103 9.78968C21.3808 9.52433 21.1856 9.14291 20.9254 8.68417C20.4044 7.76556 19.6261 6.54275 18.5968 5.32236C16.5287 2.87019 13.511 0.5 9.58253 0.499999Z" stroke="white" stroke-opacity="0.2"/>
<path d="M7.90234 10H11.6523" stroke="white" stroke-width="1.5" stroke-linecap="square"/>
</svg>