<svg width="40" height="40" viewBox="0 0 40 40" fill="none" xmlns="http://www.w3.org/2000/svg">
<circle opacity="0.1" cx="20" cy="20" r="20" fill="#0D0D0D"/>
<path d="M25.9205 15.1493C25.5784 14.7849 25.1722 14.4959 24.7252 14.2987C24.2782 14.1015 23.799 14 23.3151 14C22.8312 14 22.3521 14.1015 21.905 14.2987C21.458 14.4959 21.0518 14.7849 20.7098 15.1493L19.9998 15.9051L19.2899 15.1493C18.5989 14.4137 17.6617 14.0004 16.6845 14.0004C15.7073 14.0004 14.7702 14.4137 14.0792 15.1493C13.3882 15.8849 13 16.8827 13 17.923C13 18.9634 13.3882 19.9611 14.0792 20.6967L14.7891 21.4526L18.5421 25.448C19.332 26.289 20.6677 26.289 21.4576 25.448L25.2105 21.4526L25.9205 20.6967C26.2627 20.3325 26.5342 19.9001 26.7194 19.4242C26.9047 18.9483 27 18.4382 27 17.923C27 17.4079 26.9047 16.8977 26.7194 16.4218C26.5342 15.9459 26.2627 15.5135 25.9205 15.1493Z" stroke="white" stroke-width="1.5" stroke-linecap="round" stroke-linejoin="round"/>
</svg>
