<svg width="23" height="20" viewBox="0 0 23 20" fill="none" xmlns="http://www.w3.org/2000/svg">
<path d="M13.417 1.68268e-06C18.7095 2.39073e-06 22.9999 4.47715 22.9999 10C22.9999 15.5229 18.7095 20 13.417 20C5.12979 20 0.839357 10 0.839357 10C0.839357 10 5.12979 5.73989e-07 13.417 1.68268e-06Z" fill="#0D0D0D" fill-opacity="0.7"/>
<path d="M13.417 0.500002C18.4135 0.500002 22.4999 4.73301 22.4999 10C22.4999 15.267 18.4135 19.5 13.417 19.5C9.48846 19.5 6.47085 17.1298 4.40268 14.6776C3.37341 13.4573 2.59515 12.2344 2.07414 11.3158C1.81396 10.8571 1.61876 10.4757 1.4892 10.2103C1.44943 10.1289 1.41587 10.0584 1.38853 10C1.41587 9.94163 1.44943 9.87114 1.4892 9.78968C1.61876 9.52433 1.81396 9.14291 2.07414 8.68417C2.59515 7.76556 3.37341 6.54275 4.40269 5.32236C6.47085 2.87019 9.48846 0.500001 13.417 0.500002Z" stroke="white" stroke-opacity="0.2"/>
<path d="M13.2217 8.16699V11.8337" stroke="white" stroke-width="1.5" stroke-linecap="square"/>
<path d="M11.3467 10H15.0967" stroke="white" stroke-width="1.5" stroke-linecap="square"/>
</svg>
