<svg width="81" height="32" viewBox="0 0 81 32" fill="none" xmlns="http://www.w3.org/2000/svg">
<path fill-rule="evenodd" clip-rule="evenodd" d="M1.30976 16.8066L1.33472 16.8216C-1.94156 22.7617 1.80207 31.3535 9.52457 31.3625L22.823 31.3779V31.3769C29.4118 31.3369 34.6997 23.685 30.8493 16.7485L24.2634 4.88383C20.9912 -1.12322 11.8634 -2.10767 7.9719 4.86665L1.30976 16.8066ZM24.5394 9.51795C24.3255 0.664269 13.0401 -2.32307 8.7633 5.34189L4.08643 13.7238C4.26664 13.5925 4.4534 13.4654 4.6468 13.3428L7.67757 11.4209L14.846 7.08471C15.6962 6.57037 16.747 6.56803 17.5994 7.07858L24.5815 11.2605L24.5394 9.51795ZM25.4535 9.49419C25.4484 9.28346 25.4377 9.07574 25.4215 8.87107L30.0569 17.2219C34.3171 24.8968 26.1806 33.5422 18.6827 29.3075L17.1911 28.4651L24.2065 24.2632C25.0589 23.7527 25.5823 22.8075 25.5781 21.7864L25.5425 13.1781L25.5112 11.8817L25.5096 11.8164L25.4535 9.49419ZM15.7736 27.6645L15.7731 26.8222C15.7702 22.0367 12.0559 18.152 7.45431 18.0984L7.45431 21.6358C7.45431 22.3166 7.80586 22.9451 8.37553 23.2829L15.7736 27.6645ZM7.45431 17.1487V12.6742L8.14641 12.2354L15.3066 7.9042C15.4547 7.81461 15.6119 7.74832 15.7735 7.70535L15.7731 8.42484C15.7702 13.2103 12.0559 17.0951 7.45431 17.1487ZM23.7493 23.4417L16.6884 27.6708L16.6889 26.8222C16.6917 22.1619 20.2144 18.3558 24.6485 18.1104L24.6637 21.7905C24.6665 22.4712 24.3176 23.1013 23.7493 23.4417ZM24.6444 17.1364C20.2122 16.8889 16.6917 13.0838 16.6889 8.42484L16.6885 7.70708C16.8453 7.74942 16.998 7.81377 17.1422 7.90012L24.6083 12.372L24.6281 13.192L24.6444 17.1364ZM18.7841 30.4246L9.52559 30.4138C0.988532 30.4039 -2.16034 18.7712 5.12371 14.1521L6.5399 13.2541L6.53989 21.6358C6.5399 22.6569 7.06722 23.5998 7.92172 24.1065L15.1257 28.3787L18.2455 30.1407C18.4247 30.2419 18.6043 30.3365 18.7841 30.4246ZM16.231 23.8288C15.3107 20.8964 13.0774 18.5789 10.251 17.6235C13.0774 16.6681 15.3107 14.3506 16.231 11.4182C17.1513 14.3506 19.3846 16.6681 22.211 17.6235C19.3846 18.5789 17.1513 20.8964 16.231 23.8288Z" fill="white"/>
<path d="M59.5087 21.4064C59.5087 21.8929 58.8054 22.003 57.6531 22.003C56.5009 22.003 56.05 21.7327 55.9594 20.9565C55.4912 21.6786 54.6453 22.0764 53.4198 22.0764C51.6009 22.0764 50.0517 20.831 50.0517 18.5197V15.5055C50.0517 14.6579 49.3311 14.4397 49.3311 13.9898V13.9184C49.3311 13.7195 49.4929 13.5399 49.7453 13.5032L52.4294 13.1421C52.9516 13.0707 53.2753 13.1788 53.2753 13.5032L53.2214 18.846C53.204 20.327 53.5817 20.885 54.3736 20.885C55.0403 20.885 55.5625 20.1802 55.5625 19.0796V15.5055C55.5625 14.6579 54.8419 14.4397 54.8419 13.9898V13.9184C54.8419 13.7195 55.0037 13.5399 55.2561 13.5032L57.9402 13.1421C58.4624 13.0707 58.7322 13.1788 58.7322 13.5032V19.908C58.7322 21.3697 59.5068 20.6668 59.5068 21.4064H59.5087Z" fill="white"/>
<path d="M67.6917 14.9078C67.6917 15.8095 67.3488 16.6051 66.3044 16.6051C64.6646 16.6051 65.4046 14.9078 64.5028 14.9078C63.9267 14.9078 63.8361 15.8462 63.8361 16.6398V19.9976C63.8361 20.8279 64.7899 21.0442 64.7899 21.5501V21.6215C64.7899 21.8378 64.6107 21.9652 64.3583 21.9652H60.4853C60.2329 21.9652 60.0537 21.8397 60.0537 21.6215V21.5501C60.0537 21.0442 60.7743 20.8279 60.7743 19.9976V16.4062C60.7743 15.5585 59.9092 15.4851 59.9092 14.9619V14.9078C59.9092 14.6916 60.0537 14.5294 60.3235 14.3845L62.863 13.1932C63.3313 12.9769 63.5124 13.2299 63.5124 13.5909V14.9078C63.9093 13.7531 64.7552 13.1198 65.998 13.1198C67.0617 13.1198 67.6917 13.896 67.6917 14.9078Z" fill="white"/>
<path d="M77.5071 21.4096C77.5071 21.8789 76.4627 22.0063 75.4723 22.0063C74.3913 22.0063 73.8692 21.79 73.7246 21.1393C73.347 21.6626 72.6263 22.0777 71.4375 22.0777C69.5106 22.0777 68.0327 21.1934 68.0327 19.3339C68.0327 17.4745 69.5646 16.5728 71.2756 16.5728C72.0329 16.5728 72.6456 16.7523 73.0946 17.0246V16.9705C72.8788 14.8407 72.7516 13.9197 71.8151 13.9197C70.5723 13.9197 71.0771 16.3391 69.474 16.3391C68.7167 16.3391 68.2138 15.8699 68.2138 15.1651C68.2138 13.6841 69.9788 13.0527 71.8171 13.0527C74.2314 13.0527 75.9058 14.4604 76.1949 16.7002L76.5918 19.9306C76.7537 21.2127 77.5109 20.9057 77.5109 21.4116L77.5071 21.4096ZM73.3643 19.8572L73.293 19.0269C73.1678 17.9437 72.6976 17.5285 72.1754 17.5285C71.6533 17.5285 71.2563 18.0151 71.2563 18.7566C71.2563 20.0387 71.688 21.1567 72.4279 21.1567C73.0233 21.1567 73.3643 20.4712 73.3643 19.8572Z" fill="white"/>
<path fill-rule="evenodd" clip-rule="evenodd" d="M37.4268 21.6638V21.7353C37.4268 21.9515 37.5886 22.079 37.8584 22.079H42.2554C42.5079 22.079 42.6697 21.9535 42.6697 21.7353V21.6638C42.6697 21.3008 42.1225 21.0884 41.9202 20.6887C41.7853 20.4242 41.9895 20.1114 42.2863 20.1114H45.5253C45.8221 20.1114 46.0263 20.4242 45.8914 20.6887C45.6891 21.0865 45.1419 21.3008 45.1419 21.6619V21.7333C45.1419 21.9496 45.3037 22.077 45.5735 22.077H49.855C50.1247 22.077 50.2866 21.9515 50.2866 21.7333V21.6619C50.2866 21.156 49.6199 21.0672 49.2422 20.1095C49.2422 20.1095 45.5812 10.4666 45.429 10.1267C45.429 10.1267 45.1245 9.25977 44.4598 9.25977H43.6852C43.0551 9.25977 42.8297 9.53009 42.5772 10.1267L38.4711 20.1114C38.0934 21.0498 37.4268 21.1579 37.4268 21.6638ZM43.0659 16.6551C43.0659 17.2109 41.7153 17.3921 41.7153 17.9973H41.7132C41.7132 18.2876 42.1041 18.4749 42.5297 18.4749H45.1839C45.6095 18.4749 46.0004 18.2876 46.0004 17.9973C46.0004 17.39 44.6498 17.2109 44.6498 16.6551C44.6498 16.0993 45.544 16.1549 45.544 15.4674C45.544 14.891 44.484 15.1462 44.484 14.5328C44.484 14.2816 44.5495 14.1046 44.5495 13.9234C44.5495 13.5035 44.2999 13.2112 43.8578 13.2112C43.4158 13.2112 43.1662 13.5035 43.1662 13.9234C43.1662 14.1046 43.2317 14.2816 43.2317 14.5328C43.2317 15.1462 42.1716 14.891 42.1716 15.4674C42.1716 16.1549 43.0659 16.0993 43.0659 16.6551Z" fill="white"/>
<path d="M80.3133 20.6656C80.0885 20.8909 79.8176 21.0044 79.5007 21.0044C79.1837 21.0044 78.9109 20.8909 78.6843 20.6656C78.4576 20.4404 78.3442 20.167 78.3442 19.8494C78.3442 19.5318 78.4576 19.2604 78.6843 19.0351C78.9109 18.8099 79.1818 18.6982 79.5007 18.6982C79.8196 18.6982 80.0885 18.8099 80.3133 19.0351C80.538 19.2604 80.6494 19.5318 80.6494 19.8494C80.6494 20.167 80.538 20.4404 80.3133 20.6656ZM79.5007 20.8062C79.7504 20.8062 79.9636 20.7118 80.1404 20.5232C80.319 20.3345 80.4074 20.1093 80.4074 19.8494C80.4074 19.5895 80.319 19.3643 80.1404 19.1757C79.9617 18.9889 79.7485 18.8946 79.5007 18.8946C79.2529 18.8946 79.0358 18.9889 78.8571 19.1757C78.6785 19.3624 78.5901 19.5876 78.5901 19.8494C78.5901 20.1112 78.6785 20.3403 78.8552 20.527C79.032 20.7138 79.2471 20.8081 79.5007 20.8081V20.8062ZM79.5122 20.4924C79.3278 20.4924 79.1722 20.4269 79.0435 20.2979C78.9167 20.169 78.8514 20.015 78.8514 19.8398C78.8514 19.6646 78.9148 19.5048 79.0396 19.3836C79.1645 19.2623 79.324 19.2026 79.5161 19.2045C79.6697 19.2065 79.8023 19.245 79.9137 19.32C80.0251 19.3951 80.0808 19.4856 80.0808 19.5895C80.0808 19.628 80.0655 19.6608 80.0347 19.6858C80.004 19.7127 79.9617 19.7262 79.9099 19.7262C79.8637 19.7262 79.8253 19.7127 79.7927 19.6839C79.76 19.6569 79.735 19.6242 79.7178 19.5857C79.7005 19.5472 79.6813 19.5087 79.664 19.4702C79.6467 19.4317 79.6217 19.397 79.591 19.3701C79.5602 19.3431 79.5237 19.3277 79.4796 19.3277C79.3989 19.3277 79.3393 19.3624 79.299 19.4298C79.2586 19.4991 79.2375 19.5895 79.2375 19.7012C79.2375 19.8436 79.274 19.9591 79.3451 20.0477C79.4181 20.1362 79.5218 20.1805 79.6563 20.1805C79.7908 20.1805 79.9041 20.1208 79.9752 19.9996C79.9905 19.9784 80.0117 19.9745 80.0405 19.9861C80.0693 19.9976 80.0827 20.0169 80.0808 20.0458C80.0712 20.1728 80.0155 20.2787 79.9137 20.3615C79.8119 20.4442 79.6774 20.4866 79.5103 20.4866L79.5122 20.4924Z" fill="white"/>
</svg>
