<svg width="72" height="28" viewBox="0 0 72 28" fill="none" xmlns="http://www.w3.org/2000/svg">
<path fill-rule="evenodd" clip-rule="evenodd" d="M1.1661 14.9362L1.18832 14.9496C-1.72821 20.2287 1.60436 27.8643 8.47888 27.8723L20.3171 27.886V27.8851C26.1824 27.8495 30.8896 21.0492 27.4621 14.8846L21.5993 4.34033C18.6864 -0.998226 10.5609 -1.87312 7.09671 4.32506L1.1661 14.9362ZM21.845 8.45875C21.6546 0.590346 11.6084 -2.06454 7.8012 4.74741L3.63788 12.1965C3.7983 12.0799 3.96456 11.9669 4.13672 11.8579L6.83469 10.1499L13.216 6.29628C13.9729 5.83919 14.9082 5.83711 15.667 6.29084L21.8825 10.0074L21.845 8.45875ZM22.6587 8.43762C22.6542 8.25035 22.6446 8.06574 22.6302 7.88385L26.7567 15.3054C30.5491 22.1261 23.306 29.8094 16.6314 26.046L15.3036 25.2973L21.5487 21.5631C22.3075 21.1093 22.7734 20.2694 22.7697 19.3619L22.738 11.7115L22.7101 10.5594L22.7087 10.5014L22.6587 8.43762ZM14.0417 24.5859L14.0413 23.8373C14.0387 19.5843 10.7322 16.1319 6.63595 16.0843L6.63595 19.2281C6.63595 19.833 6.9489 20.3917 7.45601 20.6919L14.0417 24.5859ZM6.63595 15.2403V11.2638L7.25206 10.8738L13.626 7.02458C13.7578 6.94496 13.8978 6.88605 14.0417 6.84786L14.0413 7.48728C14.0387 11.7402 10.7322 15.1926 6.63595 15.2403ZM21.1417 20.833L14.8561 24.5915L14.8566 23.8373C14.8591 19.6956 17.9949 16.3131 21.9421 16.095L21.9557 19.3655C21.9582 19.9705 21.6475 20.5305 21.1417 20.833ZM21.9385 15.2294C17.993 15.0095 14.8591 11.6277 14.8566 7.48728L14.8562 6.84939C14.9958 6.88703 15.1317 6.94421 15.26 7.02095L21.9064 10.9952L21.924 11.7239L21.9385 15.2294ZM16.7217 27.0388L8.4798 27.0292C0.880148 27.0204 -1.92296 16.6822 4.56126 12.5772L5.82194 11.7791L5.82194 19.2281C5.82194 20.1355 6.29136 20.9734 7.05204 21.4238L13.465 25.2206L16.2422 26.7865C16.4018 26.8764 16.5616 26.9605 16.7217 27.0388ZM14.4489 21.177C13.6297 18.571 11.6416 16.5114 9.12551 15.6623C11.6416 14.8132 13.6297 12.7536 14.4489 10.1475C15.2681 12.7536 17.2563 14.8132 19.7723 15.6623C17.2563 16.5114 15.2681 18.571 14.4489 21.177Z" fill="#0D0D0D"/>
<path d="M52.9743 19.0246C52.9743 19.457 52.3482 19.5549 51.3225 19.5549C50.2967 19.5549 49.8953 19.3146 49.8147 18.6248C49.3979 19.2666 48.6449 19.6201 47.554 19.6201C45.9348 19.6201 44.5557 18.5132 44.5557 16.4592V13.7805C44.5557 13.0271 43.9142 12.8332 43.9142 12.4334V12.3699C43.9142 12.1932 44.0583 12.0336 44.283 12.001L46.6723 11.6801C47.1372 11.6166 47.4254 11.7127 47.4254 12.001L47.3773 16.7492C47.3619 18.0654 47.6981 18.5613 48.4031 18.5613C48.9965 18.5613 49.4614 17.9349 49.4614 16.9568V13.7805C49.4614 13.0271 48.8199 12.8332 48.8199 12.4334V12.3699C48.8199 12.1932 48.964 12.0336 49.1887 12.001L51.578 11.6801C52.0429 11.6166 52.283 11.7127 52.283 12.001V17.693C52.283 18.992 52.9725 18.3674 52.9725 19.0246H52.9743Z" fill="#0D0D0D"/>
<path d="M60.2589 13.2491C60.2589 14.0505 59.9536 14.7575 59.0239 14.7575C57.5642 14.7575 58.2229 13.2491 57.4201 13.2491C56.9073 13.2491 56.8267 14.0831 56.8267 14.7884V17.7725C56.8267 18.5104 57.6757 18.7026 57.6757 19.1522V19.2157C57.6757 19.4079 57.5162 19.5212 57.2915 19.5212H53.8438C53.6191 19.5212 53.4596 19.4096 53.4596 19.2157V19.1522C53.4596 18.7026 54.1011 18.5104 54.1011 17.7725V14.5807C54.1011 13.8274 53.3309 13.7622 53.3309 13.2972V13.2491C53.3309 13.0569 53.4596 12.9128 53.6997 12.7841L55.9604 11.7253C56.3773 11.5331 56.5385 11.7579 56.5385 12.0788V13.2491C56.8918 12.2229 57.6448 11.6601 58.7512 11.6601C59.698 11.6601 60.2589 12.3499 60.2589 13.2491Z" fill="#0D0D0D"/>
<path d="M68.9966 19.0277C68.9966 19.4447 68.0669 19.558 67.1853 19.558C66.223 19.558 65.7582 19.3658 65.6295 18.7875C65.2934 19.2525 64.6518 19.6215 63.5935 19.6215C61.8782 19.6215 60.5626 18.8355 60.5626 17.183C60.5626 15.5305 61.9263 14.7291 63.4494 14.7291C64.1235 14.7291 64.669 14.8887 65.0686 15.1307V15.0826C64.8765 13.1899 64.7633 12.3713 63.9297 12.3713C62.8234 12.3713 63.2728 14.5215 61.8456 14.5215C61.1715 14.5215 60.7239 14.1045 60.7239 13.4781C60.7239 12.162 62.295 11.6008 63.9314 11.6008C66.0807 11.6008 67.5712 12.8518 67.8285 14.8424L68.1819 17.7133C68.326 18.8527 69.0001 18.5799 69.0001 19.0295L68.9966 19.0277ZM65.3088 17.6481L65.2453 16.9102C65.1338 15.9475 64.7153 15.5786 64.2505 15.5786C63.7856 15.5786 63.4323 16.011 63.4323 16.6699C63.4323 17.8094 63.8165 18.8029 64.4752 18.8029C65.0052 18.8029 65.3088 18.1938 65.3088 17.6481Z" fill="#0D0D0D"/>
<path fill-rule="evenodd" clip-rule="evenodd" d="M33.3171 19.2535V19.317C33.3171 19.5092 33.4612 19.6225 33.7014 19.6225H37.6156C37.8403 19.6225 37.9844 19.5109 37.9844 19.317V19.2535C37.9844 18.9309 37.4973 18.7422 37.3172 18.3869C37.1971 18.1518 37.3789 17.8739 37.6431 17.8739H40.5264C40.7906 17.8739 40.9724 18.1518 40.8523 18.3869C40.6722 18.7404 40.1851 18.9309 40.1851 19.2518V19.3153C40.1851 19.5075 40.3292 19.6208 40.5693 19.6208H44.3807C44.6208 19.6208 44.7649 19.5092 44.7649 19.3153V19.2518C44.7649 18.8022 44.1714 18.7233 43.8352 17.8721C43.8352 17.8721 40.5762 9.30237 40.4407 9.00035C40.4407 9.00035 40.1697 8.22986 39.5779 8.22986H38.8883C38.3275 8.22986 38.1268 8.4701 37.9021 9.00035L34.2468 17.8739C33.9106 18.7078 33.3171 18.8039 33.3171 19.2535ZM38.3371 14.8022C38.3371 15.2962 37.1348 15.4572 37.1348 15.995H37.1329C37.1329 16.253 37.4809 16.4195 37.8598 16.4195H40.2225C40.6014 16.4195 40.9493 16.253 40.9493 15.995C40.9493 15.4553 39.747 15.2962 39.747 14.8022C39.747 14.3083 40.5431 14.3577 40.5431 13.7466C40.5431 13.2344 39.5995 13.4612 39.5995 12.9161C39.5995 12.6929 39.6578 12.5355 39.6578 12.3745C39.6578 12.0013 39.4355 11.7416 39.0421 11.7416C38.6486 11.7416 38.4263 12.0013 38.4263 12.3745C38.4263 12.5355 38.4846 12.6929 38.4846 12.9161C38.4846 13.4612 37.541 13.2344 37.541 13.7466C37.541 14.3577 38.3371 14.3083 38.3371 14.8022Z" fill="#0D0D0D"/>
<path d="M71.4945 18.3656C71.2944 18.5657 71.0533 18.6667 70.7712 18.6667C70.489 18.6667 70.2462 18.5657 70.0444 18.3656C69.8426 18.1654 69.7417 17.9225 69.7417 17.6402C69.7417 17.3579 69.8426 17.1167 70.0444 16.9165C70.2462 16.7164 70.4873 16.6171 70.7712 16.6171C71.055 16.6171 71.2944 16.7164 71.4945 16.9165C71.6946 17.1167 71.7938 17.3579 71.7938 17.6402C71.7938 17.9225 71.6946 18.1654 71.4945 18.3656ZM70.7712 18.4905C70.9935 18.4905 71.1833 18.4066 71.3406 18.239C71.4996 18.0713 71.5783 17.8711 71.5783 17.6402C71.5783 17.4092 71.4996 17.2091 71.3406 17.0414C71.1816 16.8755 70.9918 16.7916 70.7712 16.7916C70.5506 16.7916 70.3573 16.8755 70.1983 17.0414C70.0393 17.2074 69.9606 17.4075 69.9606 17.6402C69.9606 17.8729 70.0393 18.0764 70.1966 18.2424C70.3539 18.4083 70.5454 18.4922 70.7712 18.4922V18.4905ZM70.7814 18.2116C70.6173 18.2116 70.4787 18.1534 70.3642 18.0388C70.2513 17.9242 70.1932 17.7873 70.1932 17.6316C70.1932 17.4759 70.2496 17.334 70.3607 17.2262C70.4719 17.1184 70.6138 17.0654 70.7848 17.0671C70.9216 17.0688 71.0396 17.103 71.1388 17.1697C71.238 17.2364 71.2876 17.3168 71.2876 17.4092C71.2876 17.4434 71.2739 17.4725 71.2466 17.4948C71.2192 17.5187 71.1816 17.5307 71.1354 17.5307C71.0944 17.5307 71.0602 17.5187 71.0311 17.4931C71.002 17.4691 70.9798 17.44 70.9644 17.4058C70.949 17.3716 70.9319 17.3374 70.9165 17.3032C70.9011 17.2689 70.8789 17.2381 70.8515 17.2142C70.8242 17.1902 70.7917 17.1766 70.7523 17.1766C70.6805 17.1766 70.6275 17.2074 70.5916 17.2672C70.5557 17.3288 70.5369 17.4092 70.5369 17.5085C70.5369 17.6351 70.5694 17.7377 70.6326 17.8164C70.6976 17.8951 70.79 17.9344 70.9097 17.9344C71.0294 17.9344 71.1303 17.8814 71.1935 17.7736C71.2072 17.7548 71.226 17.7514 71.2517 17.7617C71.2773 17.7719 71.2893 17.789 71.2876 17.8147C71.279 17.9276 71.2295 18.0217 71.1388 18.0953C71.0482 18.1688 70.9285 18.2065 70.7797 18.2065L70.7814 18.2116Z" fill="#0D0D0D"/>
</svg>
