<svg width="41" height="47" viewBox="0 0 41 47" fill="none" xmlns="http://www.w3.org/2000/svg">
<g clip-path="url(#clip0_4599_30094)">
<path d="M17.6824 2.17173C19.4302 1.1811 21.5698 1.1811 23.3176 2.17173L30.4726 6.22717L37.562 10.3958C39.2938 11.4141 40.3636 13.267 40.3796 15.276L40.445 23.5L40.3796 31.724C40.3636 33.733 39.2938 35.5859 37.562 36.6042L30.4726 40.7728L23.3176 44.8283C21.5698 45.8189 19.4302 45.8189 17.6824 44.8283L10.5275 40.7728L3.43797 36.6042C1.70617 35.5859 0.63636 33.733 0.62039 31.724L0.555016 23.5L0.62039 15.276C0.63636 13.267 1.70617 11.4141 3.43797 10.3958L10.5275 6.22714L17.6824 2.17173Z" fill="#0D0D0D" fill-opacity="0.4" stroke="white"/>
<path d="M26.8205 25.9904C29.1225 24.6613 29.1225 21.3387 26.8205 20.0096L23 17.8038L19.1795 15.5981C16.8775 14.269 14 15.9303 14 18.5885L14 23L14 27.4115C14 30.0697 16.8775 31.731 19.1795 30.4019L23 28.1962L26.8205 25.9904Z" fill="white"/>
</g>
<defs>
<clipPath id="clip0_4599_30094">
<rect width="41" height="47" fill="white"/>
</clipPath>
</defs>
</svg>